<svg width="11" height="12" viewBox="0 0 11 12" fill="none" xmlns="http://www.w3.org/2000/svg">
<path fill-rule="evenodd" clip-rule="evenodd" d="M8.26562 1.51562H10.5625C10.8045 1.51562 11 1.71113 11 1.95313V11.0312C11 11.2732 10.8045 11.4688 10.5625 11.4688H0.5C0.258008 11.4688 0.0625 11.2732 0.0625 11.0312V1.95313C0.0625 1.71113 0.258008 1.51562 0.5 1.51562H2.79688V0.640625C2.79688 0.580469 2.84609 0.53125 2.90625 0.53125H3.67188C3.73203 0.53125 3.78125 0.580469 3.78125 0.640625V1.51562H7.28125V0.640625C7.28125 0.580469 7.33047 0.53125 7.39062 0.53125H8.15625C8.21641 0.53125 8.26562 0.580469 8.26562 0.640625V1.51562ZM1.04688 10.4844H10.0156V5.28906H1.04688V10.4844Z" fill="#BFBFBF"/>
</svg>
