<svg width="71" height="71" viewBox="0 0 71 71" fill="none" xmlns="http://www.w3.org/2000/svg">
<path d="M35.4445 0.444458C16.1163 0.444458 0.444458 16.1163 0.444458 35.4445C0.444458 54.7726 16.1163 70.4445 35.4445 70.4445C54.7726 70.4445 70.4445 54.7726 70.4445 35.4445C70.4445 16.1163 54.7726 0.444458 35.4445 0.444458ZM48.3663 48.7413L43.2101 48.7179L35.4445 39.4601L27.6866 48.7101L22.5226 48.7335C22.1788 48.7335 21.8976 48.4601 21.8976 48.1085C21.8976 47.9601 21.9523 47.8195 22.046 47.7023L32.2101 35.5929L22.046 23.4913C21.9516 23.3768 21.8992 23.2335 21.8976 23.0851C21.8976 22.7413 22.1788 22.4601 22.5226 22.4601L27.6866 22.4835L35.4445 31.7413L43.2023 22.4913L48.3585 22.4679C48.7023 22.4679 48.9835 22.7413 48.9835 23.0929C48.9835 23.2413 48.9288 23.382 48.8351 23.4991L38.6866 35.6007L48.8429 47.7101C48.9366 47.8273 48.9913 47.9679 48.9913 48.1163C48.9913 48.4601 48.7101 48.7413 48.3663 48.7413Z" fill="#FF4D4F"/>
</svg>
